<svg width="89" height="30" viewBox="0 0 89 30" fill="none" xmlns="http://www.w3.org/2000/svg">
<g id="Logo">
<g id="Icon">
<path d="M0.61731 2.7658C1.64226 3.2324 2.60984 4.20681 3.12985 5.72637C4.52992 9.81764 9.00413 12.6055 12.8814 10.4869C14.4175 9.64752 17.0678 10.5549 18.0666 13.4738C19.4667 17.5651 23.9409 20.353 27.8182 18.2343C28.2141 18.018 28.6841 17.9177 29.1807 17.938V20.8486C27.6892 20.3765 26.0646 20.4478 24.5332 21.2847C22.9971 22.124 20.3468 21.2166 19.3479 18.2978C17.9479 14.2065 13.4737 11.4186 9.59642 13.5372C8.06026 14.3766 5.41001 13.4692 4.41115 10.5503C3.73129 8.56367 2.32656 6.88433 0.61731 5.92488V2.7658Z" fill="black"/>
<path d="M3.34651 0.718262C4.6056 1.70323 5.61557 3.09764 6.16026 4.68932C7.15912 7.60817 9.80937 8.5156 11.3455 7.6762C15.2228 5.55758 19.697 8.34548 21.097 12.4368C22.0959 15.3556 24.7462 16.263 26.2823 15.4236C27.2306 14.9054 28.2147 14.6808 29.1807 14.6969V0.718262H3.34651Z" fill="black"/>
<path d="M0.61731 10.0918V13.1773C1.49007 14.0722 2.1856 15.1811 2.60511 16.407C3.60398 19.3258 6.25422 20.2333 7.79038 19.3939C11.6676 17.2752 16.1418 20.0631 17.5419 24.1544C18.5408 27.0733 21.191 27.9807 22.7272 27.1413C24.9071 25.9501 27.2758 26.31 29.1807 27.5805V24.3555C28.1153 23.7016 26.9209 23.6299 26.069 24.0954C22.1918 26.214 17.7176 23.4261 16.3175 19.3348C15.3187 16.416 12.6684 15.5085 11.1323 16.3479C7.25502 18.4666 2.78081 15.6787 1.38073 11.5874C1.18353 11.0111 0.921964 10.5133 0.61731 10.0918Z" fill="black"/>
<path d="M17.4814 29.2816C16.1498 28.2916 15.0785 26.8484 14.5115 25.1915C13.5126 22.2726 10.8624 21.3652 9.32622 22.2046C6.15185 23.9391 2.57732 22.3848 0.61731 19.5191V29.2816H17.4814Z" fill="black"/>
</g>
<g id="Dune">
<path fill-rule="evenodd" clip-rule="evenodd" d="M41.3881 6.80371C42.8485 6.80371 44.1244 7.01766 45.2157 7.4454C46.3073 7.87313 47.2144 8.46305 47.9373 9.21531C48.6598 9.95286 49.1984 10.801 49.5522 11.7597C49.921 12.7038 50.1055 13.6846 50.1055 14.7024V15.1891C50.1055 16.1626 49.921 17.1213 49.5522 18.0655C49.1984 19.0095 48.6598 19.865 47.9373 20.6319C47.2144 21.3989 46.3073 22.0111 45.2157 22.4683C44.1244 22.9256 42.8485 23.1542 41.3881 23.1542H35.5471V6.80371H41.3881ZM41.5874 20.2337H38.6888V9.72421H41.5874C42.4281 9.72421 43.1729 9.84229 43.8219 10.0783C44.4857 10.3143 45.0462 10.6609 45.5035 11.1182C45.9608 11.5754 46.3073 12.1285 46.5432 12.7775C46.794 13.4118 46.9195 14.1345 46.9195 14.9457C46.9195 15.7276 46.794 16.4429 46.5432 17.0919C46.3073 17.7261 45.9608 18.2793 45.5035 18.7513C45.0462 19.2233 44.4857 19.592 43.8219 19.8576C43.1729 20.1083 42.4281 20.2337 41.5874 20.2337Z" fill="black"/>
<path d="M52.432 22.0701C53.199 22.9845 54.2759 23.4418 55.6622 23.4418H55.7951C56.7244 23.4418 57.4989 23.2354 58.1182 22.8224C58.7378 22.4093 59.2023 21.7972 59.512 20.986C59.5977 20.7617 59.6715 20.5223 59.7335 20.2677V23.0657H62.1673V11.0296H59.0916V18.1318C59.0916 18.9136 58.8633 19.5331 58.406 19.9904C57.9634 20.4475 57.3882 20.6762 56.68 20.6762C55.9722 20.6762 55.4117 20.4624 54.9985 20.0345C54.5856 19.592 54.3791 19.002 54.3791 18.2646V11.0296H51.3038V17.999C51.3038 19.7985 51.6798 21.1555 52.432 22.0701Z" fill="black"/>
<path d="M64.5936 23.0657V11.0517H67.0274V14.0128C67.0987 13.7044 67.1872 13.4181 67.2929 13.1536C67.6176 12.3277 68.0968 11.7081 68.7311 11.2952C69.3801 10.8822 70.184 10.6756 71.1427 10.6756H71.2753C72.7063 10.6756 73.7905 11.1402 74.528 12.0695C75.2653 12.9839 75.634 14.3558 75.634 16.1848V23.0657H72.5587V15.9193C72.5587 15.1817 72.3447 14.5845 71.9172 14.1272C71.504 13.6699 70.9288 13.4412 70.1912 13.4412C69.4389 13.4412 68.8268 13.6772 68.3548 14.1492C67.8975 14.6065 67.6692 15.226 67.6692 16.0078V23.0657H64.5936Z" fill="black"/>
<path fill-rule="evenodd" clip-rule="evenodd" d="M80.4891 22.9551C81.2711 23.3091 82.1782 23.4861 83.2107 23.4861C84.1988 23.4861 85.0765 23.3164 85.8434 22.9772C86.6254 22.638 87.2669 22.1586 87.7683 21.539C88.27 20.9195 88.6091 20.1968 88.7861 19.3707H85.9542C85.8212 19.8133 85.5191 20.1895 85.0471 20.4991C84.5751 20.7942 83.9629 20.9417 83.2107 20.9417C82.4584 20.9417 81.8388 20.7794 81.3521 20.4549C80.8654 20.1157 80.5038 19.6584 80.268 19.0831C80.111 18.6912 80.0062 18.2635 79.9536 17.7999H88.9854V16.6936C88.9854 15.6317 88.7639 14.6434 88.3217 13.7288C87.8791 12.7997 87.2153 12.0548 86.3301 11.4943C85.46 10.9191 84.3758 10.6313 83.0778 10.6313C82.0897 10.6313 81.2195 10.8083 80.4672 11.1624C79.715 11.5016 79.0806 11.9663 78.5642 12.5562C78.0628 13.1316 77.6794 13.7953 77.4138 14.5476C77.1629 15.285 77.0378 16.0521 77.0378 16.8486V17.269C77.0378 18.0359 77.1629 18.7882 77.4138 19.5257C77.6794 20.2631 78.0628 20.9344 78.5642 21.539C79.0806 22.1291 79.7222 22.6011 80.4891 22.9551ZM80.0062 15.9193C80.0653 15.5813 80.1526 15.2715 80.268 14.99C80.4037 14.6708 80.5717 14.3927 80.7722 14.1555C80.942 13.9542 81.1353 13.7825 81.3521 13.6403C81.8241 13.3307 82.3993 13.1758 83.0778 13.1758C83.7562 13.1758 84.3167 13.3233 84.7593 13.6183C85.2166 13.9132 85.556 14.3336 85.7771 14.8794C85.8328 15.0169 85.8816 15.1614 85.9232 15.313C85.9435 15.3863 85.962 15.4612 85.9789 15.5378C86.0061 15.6608 86.0289 15.7879 86.0474 15.9193H80.0062Z" fill="black"/>
</g>
</g>
</svg>
