<svg width="83" height="26" viewBox="0 0 83 26" fill="none" xmlns="http://www.w3.org/2000/svg">
<g id="Logo">
<g id="Icon">
<path d="M15.8345 19.915C15.9614 21.4307 15.4484 22.9906 14.2937 24.1555C13.139 25.3205 11.5837 25.8472 10.0669 25.7337C9.93995 24.2179 10.4529 22.658 11.6076 21.4931C12.7624 20.3281 14.3176 19.8014 15.8345 19.915Z" fill="black"/>
<path d="M13.0869 17.8086C11.5731 19.4275 9.38621 20.398 6.9986 20.2889C4.61126 20.1799 2.52211 19.0143 1.16216 17.2645C2.67596 15.6457 4.86288 14.6752 7.25048 14.7842C9.63783 14.8933 11.727 16.0588 13.0869 17.8086Z" fill="black"/>
<path d="M0.272278 12.5987C0.588504 8.80801 2.50099 5.17431 5.83228 2.7808C9.16346 0.38737 13.2173 -0.265831 16.9106 0.643774C16.5944 4.43447 14.6819 8.06817 11.3506 10.4617C8.01943 12.8551 3.96564 13.5083 0.272278 12.5987Z" fill="black"/>
</g>
<g id="Leafe">
<path d="M61.6786 7.95019V10.2585H63.0636V22.3264H65.5258V10.2585H68.7575V7.95019H65.5258V5.58816C65.5258 4.911 65.5874 4.36734 65.7105 3.95691C65.8336 3.54657 65.9977 3.25934 66.2029 3.09513C66.4286 2.9105 66.6954 2.81819 67.0031 2.81819C67.2493 2.81819 67.5059 2.8695 67.7726 2.97202C68.0598 3.05412 68.306 3.26954 68.5113 3.61838L69.8654 1.58708C69.7218 1.38186 69.5167 1.18694 69.2499 1.00232C69.0037 0.817604 68.7062 0.663691 68.3574 0.54058C68.0085 0.417468 67.6084 0.355957 67.157 0.355957C66.2953 0.355957 65.5566 0.540579 64.941 0.909915C64.346 1.25875 63.8843 1.7922 63.556 2.51037C63.2278 3.22854 63.0636 4.15183 63.0636 5.28034V7.95019H61.6786Z" fill="black"/>
<path d="M23.013 3.24418L23.013 22.3264H34.093V19.8641H25.6291V3.24418H23.013Z" fill="black"/>
<path fill-rule="evenodd" clip-rule="evenodd" d="M40.6546 22.6341C42.1729 22.6341 43.4861 22.3366 44.5942 21.7415C45.7227 21.126 46.6563 20.2231 47.3949 19.0331L45.3943 17.7712C44.8814 18.633 44.2556 19.2793 43.5169 19.7102C42.7783 20.1205 41.9267 20.3257 40.9624 20.3257C39.998 20.3257 39.1772 20.1205 38.5002 19.7102C37.8231 19.2998 37.3101 18.7048 36.9613 17.9251C36.6962 17.3326 36.5318 16.6452 36.4682 15.863H47.6103V15.586C47.6308 15.4219 47.6411 15.268 47.6411 15.1243C47.6411 13.6265 47.3743 12.3339 46.8409 11.2464C46.3074 10.1589 45.5379 9.32788 44.5326 8.75333C43.5477 8.15836 42.3576 7.86083 40.9624 7.86083C39.5672 7.86083 38.336 8.16857 37.269 8.78413C36.2226 9.39969 35.4019 10.2615 34.8068 11.3695C34.2323 12.4775 33.9451 13.7701 33.9451 15.2475C33.9451 16.7043 34.222 17.9866 34.7761 19.0946C35.3506 20.2026 36.1405 21.0747 37.1459 21.7108C38.1718 22.3264 39.3414 22.6341 40.6546 22.6341ZM36.992 12.3544C36.7954 12.7709 36.651 13.2428 36.5586 13.7701H44.9498C44.9024 13.0958 44.7325 12.5009 44.4402 11.985C44.1119 11.3695 43.6503 10.8873 43.0552 10.5385C42.4602 10.1897 41.7626 10.0152 40.9624 10.0152C40.0185 10.0152 39.208 10.2205 38.531 10.6308C37.8743 11.0206 37.3614 11.5952 36.992 12.3544Z" fill="black"/>
<path fill-rule="evenodd" clip-rule="evenodd" d="M57.6638 14.5641C57.2768 14.3102 56.7844 14.0867 56.1864 13.8932C55.5094 13.647 54.6579 13.5239 53.6319 13.5239C51.8878 13.5239 50.5234 13.9445 49.5385 14.7858C48.5741 15.6065 48.092 16.7043 48.092 18.079C48.092 19.0433 48.3177 19.8641 48.769 20.5412C49.2205 21.2183 49.8155 21.7415 50.5542 22.1108C51.3134 22.4597 52.1238 22.6341 52.9856 22.6341C53.7653 22.6341 54.545 22.4905 55.3247 22.2032C56.1249 21.9159 56.7918 21.4748 57.3253 20.8798C57.4528 20.7428 57.5656 20.5976 57.6638 20.4443V22.3264H60.126V12.1697C60.126 11.2464 59.89 10.4667 59.4182 9.83062C58.9667 9.19456 58.3204 8.71232 57.4792 8.38408C56.6584 8.03525 55.694 7.86083 54.586 7.86083C53.2729 7.86083 52.1443 8.05575 51.2005 8.44559C50.2772 8.83543 49.5488 9.22527 49.0152 9.61511L50.2156 11.431C50.4413 11.2669 50.7491 11.0719 51.139 10.8462C51.5288 10.6205 52.0007 10.4256 52.5547 10.2615C53.1292 10.0973 53.7653 10.0152 54.463 10.0152C54.8938 10.0152 55.3042 10.0563 55.694 10.1384C56.0838 10.2205 56.4225 10.3538 56.7097 10.5385C57.0174 10.7231 57.2534 10.9796 57.4176 11.3079C57.5817 11.6157 57.6638 12.0158 57.6638 12.5083V14.5641ZM50.9542 16.6325C50.708 17.0018 50.5849 17.443 50.5849 17.9559C50.5849 18.4894 50.708 18.951 50.9542 19.3409C51.2211 19.7307 51.5801 20.0282 52.0315 20.2334C52.5034 20.4181 53.0369 20.5105 53.6319 20.5105C54.3911 20.5105 55.0682 20.3565 55.6633 20.0487C56.2788 19.741 56.761 19.3101 57.1098 18.7561C57.4792 18.1815 57.6638 17.525 57.6638 16.7863V16.2538C57.2695 16.062 56.8695 15.9112 56.4635 15.8014C55.7043 15.5758 54.8938 15.4629 54.032 15.4629C53.2319 15.4629 52.5752 15.5655 52.0622 15.7707C51.5698 15.9758 51.2005 16.2631 50.9542 16.6325Z" fill="black"/>
<path fill-rule="evenodd" clip-rule="evenodd" d="M79.4414 21.7415C78.3334 22.3366 77.0202 22.6341 75.5018 22.6341C74.1887 22.6341 73.0191 22.3264 71.9932 21.7108C70.9878 21.0747 70.1978 20.2026 69.6233 19.0946C69.0693 17.9866 68.7924 16.7043 68.7924 15.2475C68.7924 13.7701 69.0796 12.4775 69.6541 11.3695C70.2491 10.2615 71.0699 9.39969 72.1163 8.78413C73.1833 8.16857 74.4144 7.86083 75.8096 7.86083C77.2049 7.86083 78.3949 8.15836 79.3798 8.75333C80.3852 9.32788 81.1547 10.1589 81.6881 11.2464C82.2217 12.3339 82.4884 13.6265 82.4884 15.1243C82.4884 15.268 82.4781 15.4219 82.4576 15.586V15.863H71.3155C71.3791 16.6452 71.5434 17.3326 71.8086 17.9251C72.1574 18.7048 72.6703 19.2998 73.3474 19.7102C74.0245 20.1205 74.8452 20.3257 75.8096 20.3257C76.7739 20.3257 77.6255 20.1205 78.3642 19.7102C79.1029 19.2793 79.7286 18.633 80.2416 17.7712L82.2422 19.0331C81.5035 20.2231 80.5699 21.126 79.4414 21.7415ZM71.4059 13.7701C71.4982 13.2428 71.6427 12.7709 71.8393 12.3544C72.2086 11.5952 72.7216 11.0206 73.3782 10.6308C74.0553 10.2205 74.8658 10.0152 75.8096 10.0152C76.6098 10.0152 77.3075 10.1897 77.9025 10.5385C78.4975 10.8873 78.9592 11.3695 79.2875 11.985C79.5798 12.5009 79.7497 13.0958 79.797 13.7701H71.4059Z" fill="black"/>
</g>
</g>
</svg>
