<svg width="61" height="28" viewBox="0 0 61 28" fill="none" xmlns="http://www.w3.org/2000/svg">
<g clip-path="url(#clip0_1_55)">
<path d="M13.0814 12.68L8.76895 0.524902H6.36058L2.13049 12.3095C1.41003 14.3473 1.07039 14.7178 0 14.9134V15.4177H4.12717V14.9134C2.71714 14.6973 2.5113 14.2444 3.11854 12.3506L3.78753 10.3231H8.39843L9.16006 12.5874C9.71584 14.2753 9.45853 14.7178 8.15142 14.9134V15.4177H15.0678V14.9134C14.0283 14.7178 13.668 14.3267 13.0814 12.68ZM4.01396 9.60262L6.06211 3.32438L8.16171 9.60262H4.01396Z" fill="#FD665E"/>
<path d="M19.0826 5.05347L14.5334 5.60925V6.08269L15.0583 6.24736C15.6244 6.44292 15.717 6.58701 15.717 7.256V13.8018C15.717 14.5223 15.5523 14.7487 14.5334 14.9134V15.4177H20.4205V14.9134C19.2884 14.7281 19.1031 14.512 19.1031 13.6989V8.3058C19.556 7.88382 20.5955 7.61623 21.6144 7.61623C22.2011 7.61623 22.798 7.70886 23.0965 7.82207C23.22 7.57506 23.3332 7.14279 23.3332 6.70022C23.3332 5.77392 22.8907 5.03289 21.9644 5.03289C20.9249 5.03289 20.0603 5.90772 19.0723 7.95587L19.0826 5.05347Z" fill="#FD665E"/>
<path d="M28.6448 15.6236C30.4974 15.6236 32.0413 14.9134 32.8029 13.8224V13.3181C32.2883 13.8224 31.3929 14.1621 30.3945 14.1621C28.3464 14.1621 26.6893 12.5462 26.6893 9.71584C26.6893 7.35892 27.9244 5.85626 29.7873 5.85626C30.3431 5.85626 30.8371 5.99006 31.2282 6.23707C31.2076 6.22678 31.1973 6.22678 31.1767 6.22678C30.3842 6.22678 29.7358 6.88548 29.7358 7.71915C29.7358 8.55282 30.4048 9.21152 31.2488 9.21152C32.0721 9.21152 32.7617 8.56311 32.7617 7.6574C32.7617 6.17532 31.3517 4.99172 28.8713 4.99172C25.5983 4.99172 23.19 7.17366 23.19 10.3231C23.19 13.5857 25.6086 15.6236 28.6448 15.6236Z" fill="#FD665E"/>
<path d="M37.5278 0L32.9581 0.555779V1.02922L33.483 1.20419C34.0594 1.39974 34.1417 1.54383 34.1417 2.21282V13.7813C34.1417 14.5223 33.9564 14.7384 32.9581 14.9134V15.4177H38.557V14.9134C37.6616 14.7487 37.5278 14.5635 37.5278 13.843V7.36921C37.8366 6.79285 38.485 6.40175 39.329 6.40175C40.492 6.40175 41.1713 7.09132 41.1713 8.47048V13.843C41.1713 14.5635 41.0169 14.759 40.142 14.9134V15.4177H45.741V14.9134C44.7221 14.7384 44.5471 14.5223 44.5471 13.7813V8.27493C44.5471 6.05181 43.1371 4.99172 41.0478 4.99172C39.3084 4.99172 38.0424 5.78422 37.5072 6.94723L37.5278 0Z" fill="#FD665E"/>
<path d="M14.2619 17.4299L9.71279 17.9857V18.4591L10.2377 18.6238C10.8141 18.8194 10.8964 18.9635 10.8964 19.6324V26.1577C10.8964 26.8987 10.7111 27.1149 9.71279 27.2898V27.7942H15.3117V27.2898C14.4163 27.1355 14.2825 26.9399 14.2825 26.2195V19.7457C14.5913 19.1796 15.1779 18.7782 16.0116 18.7782C17.0923 18.7782 17.7098 19.4575 17.7098 20.8263V26.2195C17.7098 26.9399 17.5863 27.1355 16.6909 27.2898V27.7942H22.1252V27.2898C21.2298 27.1355 21.096 26.9399 21.096 26.2195V20.4764C21.096 20.1882 21.0754 19.9412 21.0239 19.6942C21.343 19.1384 21.9605 18.7782 22.7942 18.7782C23.8851 18.7782 24.5233 19.4575 24.5233 20.8263V26.2195C24.5233 26.9399 24.3895 27.1252 23.494 27.2898V27.7942H29.093V27.2898C28.0844 27.1149 27.9094 26.8987 27.9094 26.1577V20.6308C27.9094 18.4591 26.5611 17.3682 24.513 17.3682C22.7942 17.3682 21.4665 18.1915 20.9622 19.3546C20.5916 18.068 19.3772 17.3682 17.7613 17.3682C16.0116 17.3682 14.756 18.1915 14.2619 19.3443V17.4299Z" fill="#FD665E"/>
<path d="M35.0839 28C38.398 28 40.8784 25.7975 40.8784 22.6378C40.8784 19.4163 38.4186 17.3682 35.1251 17.3682C31.8213 17.3682 29.3408 19.5604 29.3408 22.7201C29.3408 25.9519 31.8007 28 35.0839 28ZM35.1559 27.3207C33.7768 27.3207 32.9225 25.5505 32.9225 22.6069C32.9225 19.7662 33.6636 18.0474 35.0633 18.0474C36.4322 18.0474 37.2864 19.8074 37.2864 22.751C37.2864 25.5916 36.5454 27.3207 35.1559 27.3207Z" fill="#FD665E"/>
<path d="M41.8364 19.7662L44.9241 27.8147H46.7766L49.7202 20.1882C50.3583 18.5312 50.6465 18.243 51.4699 18.0783V17.5637H48.0323V18.0783C49.1953 18.243 49.3291 18.5724 48.8454 20.1059L47.2192 24.9844L45.593 20.0853C45.1196 18.5724 45.2534 18.2327 46.4473 18.0783V17.5637H40.2617V18.0783C41.0748 18.2533 41.3527 18.5415 41.8364 19.7662Z" fill="#FD665E"/>
<path d="M50.6679 22.6995C50.6679 25.9724 53.0866 28 56.1537 28C58.068 28 59.6324 27.3104 60.3838 26.1783L60.3735 25.674C59.8589 26.1989 58.9943 26.5797 57.9857 26.5797C55.9067 26.5797 54.3731 25.0667 54.1055 22.3908H60.5176C60.5381 22.2158 60.569 21.9482 60.569 21.6806C60.569 19.1281 58.8605 17.3682 56.0096 17.3682C52.7984 17.3682 50.6679 19.5707 50.6679 22.6995ZM54.0541 21.5056C54.0541 19.2928 54.7642 18.0474 56.0096 18.0474C57.1005 18.0474 57.5946 19.2208 57.5946 21.0528C57.5946 21.3512 57.5946 21.5674 57.5843 21.7629L54.0644 21.8041C54.0541 21.7012 54.0541 21.6086 54.0541 21.5056Z" fill="#FD665E"/>
</g>
<defs>
<clipPath id="clip0_1_55">
<rect width="60.569" height="28" fill="white"/>
</clipPath>
</defs>
</svg>
