<svg width="145" height="22" viewBox="0 0 145 22" fill="none" xmlns="http://www.w3.org/2000/svg">
<g id="Logo">
<g id="Nextmove">
<path d="M27.191 19.6668V1.25146H30.5584L39.2136 14.2211V1.25146H42.581V19.6668H39.2136L30.5584 6.72344V19.6668H27.191Z" fill="black"/>
<path d="M51.0968 19.9825C49.7814 19.9825 48.6151 19.7019 47.5979 19.1406C46.5807 18.5794 45.7827 17.7902 45.2039 16.7729C44.6251 15.7557 44.3358 14.5806 44.3358 13.2477C44.3358 11.8973 44.6164 10.6959 45.1776 9.64359C45.7564 8.59128 46.5456 7.77575 47.5453 7.19698C48.5625 6.60068 49.7551 6.30252 51.1231 6.30252C52.4034 6.30252 53.5346 6.58314 54.5168 7.14437C55.4989 7.7056 56.2619 8.47728 56.8056 9.45943C57.3668 10.424 57.6474 11.5027 57.6474 12.6953C57.6474 12.8882 57.6386 13.0899 57.6211 13.3003C57.6211 13.5108 57.6123 13.73 57.5948 13.958H47.6768C47.747 14.9753 48.0977 15.7733 48.7291 16.352C49.378 16.9308 50.1585 17.2202 51.0705 17.2202C51.7545 17.2202 52.3245 17.0711 52.7805 16.7729C53.254 16.4573 53.6048 16.0539 53.8328 15.5628H57.2528C57.0072 16.3871 56.5951 17.1413 56.0163 17.8252C55.4551 18.4917 54.7536 19.0179 53.9117 19.4037C53.0874 19.7896 52.1491 19.9825 51.0968 19.9825ZM51.1231 9.03851C50.2988 9.03851 49.571 9.27528 48.9396 9.74882C48.3082 10.2048 47.9048 10.9064 47.7294 11.8534H54.2274C54.1748 10.994 53.8591 10.31 53.2803 9.80143C52.7016 9.29282 51.9825 9.03851 51.1231 9.03851Z" fill="black"/>
<path d="M57.0285 19.6668L61.7639 13.1425L57.0285 6.61821H60.6327L63.9474 11.2484L67.2359 6.61821H70.8663L66.1047 13.1425L70.8663 19.6668H67.2359L63.9474 15.0366L60.6327 19.6668H57.0285Z" fill="black"/>
<path d="M77.5102 19.6668C76.1423 19.6668 75.0461 19.3336 74.2218 18.6671C73.3975 18.0006 72.9853 16.8168 72.9853 15.1156V9.43313H70.7492V6.61821H72.9853L73.38 3.1193H76.3527V6.61821H79.8779V9.43313H76.3527V15.1419C76.3527 15.7733 76.4842 16.2117 76.7473 16.4573C77.0279 16.6853 77.5015 16.7993 78.1679 16.7993H79.799V19.6668H77.5102Z" fill="black"/>
<path d="M81.4537 19.6668V6.61821H84.4265L84.7159 8.38082C85.1368 7.74944 85.6892 7.2496 86.3732 6.88129C87.0748 6.49545 87.8815 6.30252 88.7935 6.30252C90.8104 6.30252 92.2398 7.08298 93.0817 8.6439C93.5552 7.92483 94.1866 7.35483 94.9758 6.93391C95.7826 6.51298 96.6595 6.30252 97.6066 6.30252C99.3078 6.30252 100.614 6.81114 101.526 7.82836C102.438 8.84559 102.894 10.3364 102.894 12.3007V19.6668H99.527V12.6163C99.527 11.4939 99.3078 10.6345 98.8693 10.0382C98.4484 9.4419 97.7907 9.14374 96.8963 9.14374C95.9843 9.14374 95.2477 9.47697 94.6864 10.1434C94.1427 10.8099 93.8709 11.7394 93.8709 12.932V19.6668H90.5035V12.6163C90.5035 11.4939 90.2843 10.6345 89.8458 10.0382C89.4074 9.4419 88.7322 9.14374 87.8202 9.14374C86.9257 9.14374 86.1978 9.47697 85.6366 10.1434C85.0929 10.8099 84.8211 11.7394 84.8211 12.932V19.6668H81.4537Z" fill="black"/>
<path d="M111.037 19.9825C109.774 19.9825 108.634 19.6931 107.617 19.1143C106.618 18.5356 105.82 17.7376 105.223 16.7203C104.644 15.6856 104.355 14.493 104.355 13.1425C104.355 11.792 104.653 10.6082 105.25 9.59097C105.846 8.55621 106.644 7.74944 107.644 7.17067C108.661 6.59191 109.801 6.30252 111.064 6.30252C112.309 6.30252 113.431 6.59191 114.431 7.17067C115.448 7.74944 116.246 8.55621 116.825 9.59097C117.421 10.6082 117.719 11.792 117.719 13.1425C117.719 14.493 117.421 15.6856 116.825 16.7203C116.246 17.7376 115.448 18.5356 114.431 19.1143C113.414 19.6931 112.282 19.9825 111.037 19.9825ZM111.037 17.0623C111.914 17.0623 112.677 16.7379 113.326 16.0889C113.975 15.4225 114.299 14.4403 114.299 13.1425C114.299 11.8447 113.975 10.8713 113.326 10.2224C112.677 9.5559 111.923 9.22267 111.064 9.22267C110.169 9.22267 109.397 9.5559 108.748 10.2224C108.117 10.8713 107.801 11.8447 107.801 13.1425C107.801 14.4403 108.117 15.4225 108.748 16.0889C109.397 16.7379 110.16 17.0623 111.037 17.0623Z" fill="black"/>
<path d="M122.298 19.6668L117.51 6.61821H121.035L124.35 16.4836L127.664 6.61821H131.19L126.375 19.6668H122.298Z" fill="black"/>
<path d="M137.696 19.9825C136.381 19.9825 135.214 19.7019 134.197 19.1406C133.18 18.5794 132.382 17.7902 131.803 16.7729C131.224 15.7557 130.935 14.5806 130.935 13.2477C130.935 11.8973 131.216 10.6959 131.777 9.64359C132.356 8.59128 133.145 7.77575 134.145 7.19698C135.162 6.60068 136.354 6.30252 137.722 6.30252C139.003 6.30252 140.134 6.58314 141.116 7.14437C142.098 7.7056 142.861 8.47728 143.405 9.45943C143.966 10.424 144.247 11.5027 144.247 12.6953C144.247 12.8882 144.238 13.0899 144.22 13.3003C144.22 13.5108 144.212 13.73 144.194 13.958H134.276C134.346 14.9753 134.697 15.7733 135.328 16.352C135.977 16.9308 136.758 17.2202 137.67 17.2202C138.354 17.2202 138.924 17.0711 139.38 16.7729C139.853 16.4573 140.204 16.0539 140.432 15.5628H143.852C143.607 16.3871 143.194 17.1413 142.616 17.8252C142.054 18.4917 141.353 19.0179 140.511 19.4037C139.687 19.7896 138.748 19.9825 137.696 19.9825ZM137.722 9.03851C136.898 9.03851 136.17 9.27528 135.539 9.74882C134.907 10.2048 134.504 10.9064 134.329 11.8534H140.827C140.774 10.994 140.458 10.31 139.88 9.80143C139.301 9.29282 138.582 9.03851 137.722 9.03851Z" fill="black"/>
</g>
<g id="Icon">
<path d="M10.5866 0.893537V9.21842C10.5866 10.1686 9.8163 10.9389 8.86613 10.9389L0.541243 10.9389L0.541243 7.49798H4.70797L0.330078 3.12009L2.76315 0.687012L7.14568 5.06954L7.14568 0.893537L10.5866 0.893537Z" fill="black"/>
<path d="M20.7495 11.0568H12.4246C11.4744 11.0568 10.7042 11.8271 10.7042 12.7773V21.1022L14.1451 21.1022L14.1451 16.9351L18.5233 21.3133L20.9563 18.8802L16.5739 14.4977H20.7495V11.0568Z" fill="black"/>
</g>
</g>
</svg>
