<svg width="125" height="32" viewBox="0 0 125 32" fill="none" xmlns="http://www.w3.org/2000/svg">
<g id="Logo">
<g id="Icon">
<path id="Subtract" fill-rule="evenodd" clip-rule="evenodd" d="M31.8081 14.8073C32.414 17.6975 32.1337 20.3858 31.1546 22.6275L31.2065 22.6267C30.3671 24.924 27.575 29.7306 21.0012 31.109C20.7511 31.1615 20.5013 31.203 20.2521 31.2342C19.625 31.3264 18.9744 31.3741 18.3028 31.3741C10.5176 31.3741 2.86299 24.9656 1.20572 17.0603C0.416311 13.2947 1.13004 9.86878 2.93541 7.31329C3.77398 5.69909 8.17343 1.78429 11.7237 1.02358C11.8202 1.00291 11.913 0.986721 12.0022 0.974838C12.9402 0.746506 13.9407 0.625977 14.9939 0.625977C22.6382 0.625977 30.1662 6.97518 31.8081 14.8073ZM29.132 14.1443C30.421 20.2929 26.5989 25.2773 20.595 25.2773C14.5912 25.2773 8.67922 20.2929 7.39023 14.1443C6.10124 7.99572 9.92337 3.0113 15.9272 3.0113C21.931 3.0113 27.843 7.99572 29.132 14.1443ZM20.2285 21.8316C24.6724 21.8316 27.5198 18.2301 26.5885 13.7875C25.6571 9.34484 21.2997 5.74337 16.8558 5.74337C12.412 5.74337 9.56454 9.34484 10.4959 13.7875C11.4272 18.2301 15.7847 21.8316 20.2285 21.8316ZM24.1871 13.454C24.7714 16.241 22.9366 18.5003 20.0891 18.5003C17.2415 18.5003 14.4595 16.241 13.8752 13.454C13.291 10.667 15.1257 8.40776 17.9733 8.40776C20.8208 8.40776 23.6029 10.667 24.1871 13.454ZM21.5762 13.4543C21.8645 14.8298 20.959 15.9448 19.5536 15.9448C18.1482 15.9448 16.7752 14.8298 16.4868 13.4543C16.1985 12.0788 17.104 10.9638 18.5094 10.9638C19.9148 10.9638 21.2878 12.0788 21.5762 13.4543Z" fill="black"/>
</g>
<g id="Union">
<path d="M52.4072 23.0464C52.4072 23.2233 52.5506 23.3667 52.7275 23.3667H55.1623C55.3392 23.3667 55.4826 23.2233 55.4826 23.0464V11.3528H52.7275C52.5506 11.3528 52.4072 11.4962 52.4072 11.6731V23.0464Z" fill="black"/>
<path d="M52.5063 9.45C52.8013 9.75975 53.2512 9.91463 53.8559 9.91463C54.4607 9.91463 54.9032 9.75975 55.1834 9.45C55.4637 9.1255 55.6038 8.72725 55.6038 8.25524C55.6038 7.75374 55.4637 7.34811 55.1834 7.03836C54.9032 6.72861 54.4607 6.57373 53.8559 6.57373C53.2512 6.57373 52.8013 6.72861 52.5063 7.03836C52.226 7.34811 52.0859 7.75374 52.0859 8.25524C52.0859 8.72725 52.226 9.1255 52.5063 9.45Z" fill="black"/>
<path fill-rule="evenodd" clip-rule="evenodd" d="M47.5594 17.7469C46.6154 18.1894 45.4649 18.4107 44.1079 18.4107H41.6741V23.0464C41.6741 23.2233 41.5307 23.3667 41.3538 23.3667H38.8526C38.6757 23.3667 38.5323 23.2233 38.5323 23.0464V7.42503C38.5323 7.24814 38.6757 7.10474 38.8526 7.10474H41.3538C41.3884 7.10474 41.4217 7.11021 41.4529 7.12034C41.4841 7.11021 41.5173 7.10474 41.5519 7.10474H44.1079C45.4649 7.10474 46.6154 7.32599 47.5594 7.76849C48.5182 8.21099 49.2483 8.84525 49.7498 9.67125C50.2513 10.4825 50.5021 11.4486 50.5021 12.5697V12.9237C50.5021 14.0447 50.2513 15.0182 49.7498 15.8442C49.2483 16.6554 48.5182 17.2897 47.5594 17.7469ZM45.9664 10.2023C45.5387 9.95151 45.0076 9.82613 44.3734 9.82613H41.6741V15.6893H44.3734C45.0076 15.6893 45.5387 15.5639 45.9664 15.3132C46.4089 15.0624 46.7408 14.7158 46.962 14.2733C47.198 13.8308 47.316 13.3219 47.316 12.7467C47.316 12.1714 47.198 11.6625 46.962 11.22C46.7408 10.7775 46.4089 10.4383 45.9664 10.2023Z" fill="black"/>
<path d="M58.241 23.3667C58.0641 23.3667 57.9207 23.2233 57.9207 23.0464V11.6731C57.9207 11.4962 58.0641 11.3528 58.241 11.3528H60.0342C60.2111 11.3528 60.3545 11.4962 60.3545 11.6731V14.3133C60.4258 14.0052 60.5143 13.719 60.62 13.4547C60.9445 12.6287 61.4239 12.0091 62.0581 11.5961C62.7071 11.1831 63.511 10.9766 64.4698 10.9766H64.6025C66.0333 10.9766 67.1174 11.4413 67.8549 12.3705C68.5924 13.285 68.9612 14.6568 68.9612 16.4858V23.0464C68.9612 23.2233 68.8178 23.3667 68.6409 23.3667H66.2061C66.0292 23.3667 65.8858 23.2233 65.8858 23.0464V16.2203C65.8858 15.4828 65.6719 14.8854 65.2442 14.4282C64.8312 13.9709 64.2559 13.7423 63.5184 13.7423C62.7661 13.7423 62.154 13.9783 61.682 14.4503C61.2248 14.9075 60.9961 15.527 60.9961 16.3088V23.0464C60.9961 23.2233 60.8527 23.3667 60.6758 23.3667H58.241Z" fill="black"/>
<path fill-rule="evenodd" clip-rule="evenodd" d="M80.4317 17.7469C79.4877 18.1894 78.3372 18.4107 76.9802 18.4107H74.5464V23.0464C74.5464 23.2233 74.403 23.3667 74.2261 23.3667H71.7249C71.548 23.3667 71.4046 23.2233 71.4046 23.0464V7.42503C71.4046 7.24814 71.548 7.10474 71.7249 7.10474H74.2261C74.2607 7.10474 74.294 7.11021 74.3252 7.12034C74.3563 7.11021 74.3896 7.10474 74.4242 7.10474H76.9802C78.3372 7.10474 79.4877 7.32599 80.4317 7.76849C81.3905 8.21099 82.1206 8.84525 82.6221 9.67125C83.1236 10.4825 83.3743 11.4486 83.3743 12.5697V12.9237C83.3743 14.0447 83.1236 15.0182 82.6221 15.8442C82.1206 16.6554 81.3905 17.2897 80.4317 17.7469ZM78.8387 10.2023C78.4109 9.95151 77.8799 9.82613 77.2457 9.82613H74.5464V15.6893H77.2457C77.8799 15.6893 78.4109 15.5639 78.8387 15.3132C79.2812 15.0624 79.6131 14.7158 79.8343 14.2733C80.0703 13.8308 80.1883 13.3219 80.1883 12.7467C80.1883 12.1714 80.0703 11.6625 79.8343 11.22C79.6131 10.7775 79.2812 10.4383 78.8387 10.2023Z" fill="black"/>
<path fill-rule="evenodd" clip-rule="evenodd" d="M90.2197 23.7871C89.1577 23.7871 88.221 23.6175 87.4098 23.2782C86.5985 22.939 85.9126 22.4817 85.3521 21.9065C84.7916 21.3165 84.3639 20.6527 84.0689 19.9152C83.7886 19.1777 83.6485 18.4107 83.6485 17.6142V17.1496C83.6485 16.3236 83.796 15.5418 84.091 14.8043C84.4007 14.052 84.8359 13.3883 85.3964 12.813C85.9716 12.223 86.6649 11.7658 87.4761 11.4413C88.2874 11.102 89.2019 10.9324 90.2197 10.9324C91.2374 10.9324 92.1519 11.102 92.9632 11.4413C93.7744 11.7658 94.4603 12.223 95.0208 12.813C95.5961 13.3883 96.0312 14.052 96.3262 14.8043C96.6212 15.5418 96.7687 16.3236 96.7687 17.1496V17.6142C96.7687 18.4107 96.6212 19.1777 96.3262 19.9152C96.046 20.6527 95.6256 21.3165 95.0651 21.9065C94.5046 22.4817 93.8187 22.939 93.0074 23.2782C92.1962 23.6175 91.2669 23.7871 90.2197 23.7871ZM90.2197 21.1542C90.9719 21.1542 91.6062 20.992 92.1224 20.6675C92.6387 20.3282 93.0296 19.8783 93.2951 19.3178C93.5606 18.7426 93.6933 18.0936 93.6933 17.3708C93.6933 16.6333 93.5532 15.9843 93.2729 15.4238C93.0074 14.8485 92.6092 14.3987 92.0782 14.0742C91.5619 13.7349 90.9424 13.5653 90.2197 13.5653C89.4969 13.5653 88.87 13.7349 88.339 14.0742C87.8228 14.3987 87.4245 14.8485 87.1443 15.4238C86.864 15.9843 86.7239 16.6333 86.7239 17.3708C86.7239 18.0936 86.8566 18.7426 87.1221 19.3178C87.4024 19.8783 87.8006 20.3282 88.3169 20.6675C88.8332 20.992 89.4674 21.1542 90.2197 21.1542Z" fill="black"/>
<path d="M98.9306 23.0464C98.9306 23.2233 99.074 23.3667 99.2509 23.3667H101.686C101.863 23.3667 102.006 23.2233 102.006 23.0464V11.3528H99.2509C99.074 11.3528 98.9306 11.4962 98.9306 11.6731V23.0464Z" fill="black"/>
<path d="M99.0296 9.45C99.3246 9.75975 99.7745 9.91463 100.379 9.91463C100.984 9.91463 101.427 9.75975 101.707 9.45C101.987 9.1255 102.127 8.72725 102.127 8.25524C102.127 7.75374 101.987 7.34811 101.707 7.03836C101.427 6.72861 100.984 6.57373 100.379 6.57373C99.7745 6.57373 99.3246 6.72861 99.0296 7.03836C98.7494 7.34811 98.6092 7.75374 98.6092 8.25524C98.6092 8.72725 98.7494 9.1255 99.0296 9.45Z" fill="black"/>
<path d="M104.764 23.3667C104.587 23.3667 104.444 23.2233 104.444 23.0464V11.6731C104.444 11.4962 104.587 11.3528 104.764 11.3528H106.558C106.734 11.3528 106.878 11.4962 106.878 11.6731V14.3133C106.949 14.0052 107.038 13.719 107.143 13.4547C107.468 12.6287 107.947 12.0091 108.581 11.5961C109.23 11.1831 110.034 10.9766 110.993 10.9766H111.126C112.557 10.9766 113.641 11.4413 114.378 12.3705C115.116 13.285 115.485 14.6568 115.485 16.4858V23.0464C115.485 23.2233 115.341 23.3667 115.164 23.3667H112.729C112.553 23.3667 112.409 23.2233 112.409 23.0464V16.2203C112.409 15.4828 112.195 14.8854 111.768 14.4282C111.354 13.9709 110.779 13.7423 110.042 13.7423C109.289 13.7423 108.677 13.9783 108.205 14.4503C107.748 14.9075 107.519 15.527 107.519 16.3088V23.0464C107.519 23.2233 107.376 23.3667 107.199 23.3667H104.764Z" fill="black"/>
<path d="M120.163 23.1012C120.885 23.3815 121.8 23.5216 122.906 23.5216H124.312C124.488 23.5216 124.632 23.3782 124.632 23.2013V21.209C124.632 21.0321 124.488 20.8887 124.312 20.8887H122.751C122.161 20.8887 121.704 20.7338 121.38 20.4241C121.07 20.0996 120.915 19.6423 120.915 19.0523L120.926 13.6095H124.312C124.488 13.6095 124.632 13.4661 124.632 13.2892V11.6731C124.632 11.4962 124.488 11.3528 124.312 11.3528H120.93L120.936 8.28855C120.937 8.11141 120.793 7.96762 120.616 7.96762H118.38C118.204 7.96762 118.06 8.11062 118.06 8.28726L118.054 11.3528H116.456C116.279 11.3528 116.136 11.4962 116.136 11.6731V13.2892C116.136 13.4661 116.279 13.6095 116.456 13.6095H118.049L118.039 18.8532C118.039 20.0185 118.216 20.9477 118.57 21.641C118.924 22.3195 119.455 22.8062 120.163 23.1012Z" fill="black"/>
</g>
</g>
</svg>
