<svg width="92" height="28" viewBox="0 0 92 28" fill="none" xmlns="http://www.w3.org/2000/svg">
<g id="Logo">
<g id="Terra">
<path d="M30.1342 5.93713V2.77686H46.0343V5.93713H39.8969V24.6434H36.3353V5.93713H30.1342Z" fill="black"/>
<path d="M55.7737 21.7704L56.6641 21.6747L56.7277 24.2603C54.3109 24.7498 52.1696 24.9945 50.304 24.9945C47.9508 24.9945 46.2548 24.3455 45.216 23.0473C44.1984 21.7491 43.6896 19.6742 43.6896 16.8225C43.6896 11.1617 45.9898 8.33128 50.5902 8.33128C55.0423 8.33128 57.2683 10.768 57.2683 15.6414L57.0457 18.1313H47.1876C47.2088 19.4508 47.495 20.4191 48.0462 21.0362C48.5974 21.6534 49.6256 21.962 51.1308 21.962C52.636 21.962 54.1837 21.8981 55.7737 21.7704ZM53.8657 15.4499C53.8657 13.8751 53.6113 12.7791 53.1024 12.1619C52.6148 11.5235 51.7774 11.2043 50.5902 11.2043C49.403 11.2043 48.5338 11.5341 47.9826 12.1938C47.4526 12.8536 47.177 13.9389 47.1558 15.4499H53.8657Z" fill="black"/>
<path d="M59.0113 24.6434V8.68242H62.4458V10.5977C64.2478 9.42726 66.0498 8.67178 67.8518 8.33128V11.8108C66.0286 12.1726 64.4704 12.6407 63.1772 13.2153L62.4776 13.5026V24.6434H59.0113Z" fill="black"/>
<path d="M68.9116 24.6434V8.68242H72.3461V10.5977C74.1481 9.42726 75.9501 8.67178 77.7521 8.33128V11.8108C75.9289 12.1726 74.3707 12.6407 73.0775 13.2153L72.3779 13.5026V24.6434H68.9116Z" fill="black"/>
<path d="M90.5781 13.5984V20.8766C90.5993 21.3448 90.7159 21.6959 90.9279 21.93C91.1611 22.1428 91.5109 22.2812 91.9773 22.345L91.8819 24.9945C90.0587 24.9945 88.6488 24.6008 87.6524 23.8134C85.9564 24.6008 84.2498 24.9945 82.5326 24.9945C79.3738 24.9945 77.7944 23.3027 77.7944 19.919C77.7944 18.3016 78.2184 17.1311 79.0664 16.4075C79.9356 15.684 81.2606 15.2477 83.0414 15.0987L87.1436 14.7476V13.5984C87.1436 12.7472 86.9528 12.1513 86.5712 11.8108C86.2108 11.4703 85.6702 11.3 84.9494 11.3C83.5926 11.3 81.8966 11.3851 79.8614 11.5554L78.8438 11.6192L78.7166 9.16125C81.0274 8.60793 83.1474 8.33128 85.0766 8.33128C87.027 8.33128 88.4262 8.7569 89.2742 9.60816C90.1435 10.4381 90.5781 11.7682 90.5781 13.5984ZM83.4548 17.5567C81.992 17.6844 81.2606 18.4825 81.2606 19.9509C81.2606 21.4193 81.9072 22.1535 83.2004 22.1535C84.2604 22.1535 85.384 21.9832 86.5712 21.6427L87.1436 21.4512V17.2056L83.4548 17.5567Z" fill="black"/>
</g>
<g id="Icon">
<path id="Icon_2" fill-rule="evenodd" clip-rule="evenodd" d="M20.5141 0.944336C23.2813 0.944336 25.59 2.90718 26.124 5.51651C26.2002 5.88928 26.2403 6.27523 26.2403 6.67054V21.3296C26.2403 24.4921 23.6766 27.0558 20.5141 27.0558H5.85499C5.2289 27.0558 4.62629 26.9554 4.06238 26.7697C1.77789 26.0173 0.128784 23.866 0.128784 21.3296V6.67054C0.128784 3.50805 2.6925 0.944336 5.85499 0.944336H20.5141ZM18.1916 2.77672H20.5141C22.4118 2.77672 23.9924 4.13428 24.3378 5.93122C23.2357 6.05609 21.976 5.94038 20.6458 5.3703C19.467 4.86508 18.6851 3.92907 18.1916 2.77672ZM12.7547 2.77672H16.235C16.8132 4.51738 17.921 6.19609 19.924 7.05452C21.5308 7.74313 23.0568 7.90287 24.4079 7.76868V9.64099C22.5734 10.2217 20.7453 10.4568 19.2826 10.0286C18.5561 9.816 17.7224 9.25141 16.8253 8.36326C15.9405 7.48726 15.0575 6.36059 14.2238 5.12906C13.7056 4.36372 13.2122 3.56649 12.7547 2.77672ZM10.6502 2.77672H8.22548C8.33598 4.85022 7.84743 7.38292 6.03002 9.94868C4.82594 11.6486 3.40208 12.5835 1.96117 13.0011V16.654C2.82941 16.1267 3.85154 15.4066 5.04825 14.4343C7.87583 12.1369 10.1029 11.2228 11.7916 11.0556C13.4706 10.8894 14.6641 11.4718 15.1899 12.2079C15.7418 12.9806 16.0538 14.0161 16.1713 15.1083C16.2901 16.2137 16.2177 17.4465 15.9389 18.6701C15.3847 21.1026 13.9777 23.6346 11.443 24.9995C11.305 25.0738 11.1657 25.1485 11.0253 25.2235H13.8735C14.9874 23.8094 15.8788 22.4044 16.1984 21.3032C16.5593 20.0603 16.7074 18.7426 16.8459 17.5107L16.846 17.5104L16.846 17.5101C16.8957 17.0677 16.9443 16.6362 17.0009 16.2232C17.0991 15.5076 17.2347 14.7495 17.5259 14.2028C17.68 13.9135 17.9248 13.5914 18.3189 13.4055C18.7337 13.2097 19.1654 13.2337 19.544 13.36C20.6053 13.7137 22.0163 13.787 24.4079 13.188V11.5535C22.5637 12.0732 20.5527 12.3096 18.7679 11.7872C17.6162 11.4502 16.5229 10.6424 15.5361 9.66545C14.5371 8.67637 13.579 7.44528 12.7064 6.15633C11.96 5.05379 11.2651 3.89263 10.6502 2.77672ZM24.4079 15.0725C22.1295 15.594 20.4911 15.5723 19.1055 15.1436C19.003 15.3833 18.9074 15.8085 18.8163 16.4724C18.771 16.8022 18.729 17.1771 18.6836 17.5825L18.6835 17.5828C18.5419 18.8463 18.3671 20.4055 17.9582 21.8141C17.6447 22.8939 16.9668 24.08 16.1609 25.2235H18.0044C18.3444 24.3779 18.6576 23.5726 18.9036 22.8956C19.1678 22.1682 19.3334 21.6451 19.3867 21.3789C19.4878 20.8733 19.6804 20.3295 20.1322 19.9438C20.6022 19.5426 21.1794 19.4565 21.7202 19.484C22.2527 19.5111 22.8771 19.6545 23.5815 19.8566C23.8376 19.93 24.1129 20.0139 24.4079 20.1069V15.0725ZM24.3483 22.012C23.87 21.8567 23.4492 21.7249 23.0763 21.6179C22.3957 21.4227 21.9392 21.3299 21.6271 21.3141C21.4256 21.3038 21.344 21.3286 21.3206 21.3391C21.3075 21.3546 21.2425 21.4433 21.1835 21.7383C21.0993 22.1592 20.886 22.8052 20.6258 23.5213C20.439 24.0354 20.2171 24.6149 19.977 25.2235H20.5141C22.4318 25.2235 24.0257 23.8371 24.3483 22.012ZM7.07164 25.2235C8.27162 24.6046 9.48281 23.9738 10.5743 23.3861C12.506 22.346 13.6758 20.3543 14.1523 18.263C14.3889 17.2248 14.4453 16.1958 14.3494 15.3042C14.2521 14.3994 14.0058 13.7027 13.6988 13.2729C13.652 13.2073 13.1849 12.759 11.9721 12.8791C10.7691 12.9982 8.87332 13.6874 6.20374 15.8565C4.53264 17.2142 3.13415 18.1446 1.96117 18.7595V20.826C2.25033 20.5614 2.57684 20.3404 2.87858 20.1518C3.186 19.9597 3.52096 19.7707 3.85014 19.5861L3.93172 19.5404C4.23923 19.368 4.54443 19.197 4.8475 19.0155C5.51049 18.6184 6.10664 18.2036 6.56503 17.721C7.35869 16.8855 8.50421 15.8883 9.58118 15.2075C10.1125 14.8717 10.6863 14.5746 11.2277 14.4383C11.7357 14.3103 12.5235 14.2582 13.0725 14.8857C13.5949 15.4829 13.8114 16.3786 13.4308 17.541C13.0694 18.6451 12.1617 20.0393 10.4072 21.8523C8.586 23.7342 6.7647 24.677 5.22919 24.9774C5.05601 25.0112 4.88565 25.0371 4.71871 25.0551C5.07818 25.1646 5.45971 25.2235 5.85499 25.2235H7.07164ZM1.96117 11.0623C2.84895 10.6941 3.73339 10.0209 4.53475 8.88953C6.11706 6.65567 6.49942 4.48958 6.39054 2.77672H5.85499C3.70449 2.77672 1.96117 4.52005 1.96117 6.67054V11.0623ZM21.3189 21.3399C21.3146 21.342 21.3128 21.3433 21.313 21.3435C21.3131 21.3436 21.3141 21.3431 21.3158 21.3421L21.3169 21.3413L21.3189 21.3399ZM10.5602 16.7564C9.6375 17.3397 8.60694 18.232 7.89358 18.983C7.26412 19.6457 6.50034 20.1614 5.78904 20.5875C5.46215 20.7832 5.13437 20.9669 4.83055 21.1372L4.7464 21.1844C4.41346 21.3711 4.11494 21.54 3.8497 21.7057C3.27778 22.0632 3.03868 22.3034 2.96375 22.4573C2.94226 22.5014 2.93971 22.5267 2.94633 22.5652C2.95575 22.62 2.99519 22.7467 3.15211 22.9559L3.16736 22.9762L3.18148 22.9974C3.18236 22.9986 3.20299 23.027 3.26856 23.0672C3.33628 23.1086 3.44113 23.1555 3.59004 23.1921C3.88928 23.2657 4.32489 23.2872 4.87737 23.1791C5.97598 22.9641 7.47595 22.2463 9.09046 20.578C10.7717 18.8407 11.4555 17.6856 11.6894 16.971C11.8287 16.5455 11.8001 16.3151 11.7556 16.1974C11.7333 16.2015 11.7067 16.2072 11.6753 16.2151C11.4107 16.2818 11.0288 16.4603 10.5602 16.7564ZM11.8542 16.1888C11.8538 16.1892 11.8483 16.1893 11.839 16.1875C11.8499 16.1874 11.8546 16.1883 11.8542 16.1888Z" fill="black"/>
</g>
</g>
</svg>
