<svg width="103" height="24" viewBox="0 0 103 24" fill="none" xmlns="http://www.w3.org/2000/svg">
<g id="Logo">
<g id="Text">
<path d="M35.2112 22.4001C32.8314 22.4001 30.9751 21.7417 29.6424 20.4248C28.3255 19.108 27.6671 17.2279 27.6671 14.7846V5.45557H31.5224V14.6418C31.5224 17.6245 32.76 19.1159 35.235 19.1159C36.4408 19.1159 37.361 18.7589 37.9956 18.045C38.6302 17.3151 38.9476 16.1807 38.9476 14.6418V5.45557H42.7553V14.7846C42.7553 17.2279 42.089 19.108 40.7562 20.4248C39.4394 21.7417 37.591 22.4001 35.2112 22.4001Z" fill="black"/>
<path d="M44.6374 13.9278H51.3724V16.9026H44.6374V13.9278Z" fill="black"/>
<path d="M55.9562 8.59696H50.6254V5.45557H65.1424V8.59696H59.8116V22.1145H55.9562V8.59696Z" fill="black"/>
<path d="M78.385 9.31092V22.1145H74.8628V20.5914C74.371 21.1467 73.7839 21.5751 73.1017 21.8765C72.4195 22.1621 71.6817 22.3049 70.8885 22.3049C69.2067 22.3049 67.874 21.821 66.8903 20.8532C65.9066 19.8854 65.4148 18.4495 65.4148 16.5457V9.31092H69.1274V15.9983C69.1274 18.0608 69.992 19.0921 71.7214 19.0921C72.6099 19.0921 73.3238 18.8065 73.8633 18.2353C74.4027 17.6483 74.6724 16.7836 74.6724 15.6413V9.31092H78.385Z" fill="black"/>
<path d="M84.1805 11.0006C84.6247 10.3819 85.2197 9.91381 85.9653 9.5965C86.7269 9.27919 87.5995 9.12053 88.5832 9.12053V12.5475C88.1707 12.5158 87.893 12.4999 87.7502 12.4999C86.6872 12.4999 85.8543 12.8014 85.2514 13.4043C84.6485 13.9913 84.347 14.8798 84.347 16.0697V22.1145H80.6345V9.31092H84.1805V11.0006Z" fill="black"/>
<path d="M97.3828 9.12053C98.9694 9.12053 100.247 9.5965 101.214 10.5484C102.198 11.5004 102.69 12.9124 102.69 14.7846V22.1145H98.9773V15.3557C98.9773 14.3403 98.7552 13.5867 98.311 13.0949C97.8667 12.5872 97.2242 12.3333 96.3833 12.3333C95.4472 12.3333 94.7016 12.6268 94.1463 13.2139C93.591 13.785 93.3133 14.6418 93.3133 15.7841V22.1145H89.6007V9.31092H93.1467V10.8102C93.6385 10.2708 94.2494 9.85828 94.9792 9.5727C95.709 9.27125 96.5102 9.12053 97.3828 9.12053Z" fill="black"/>
</g>
<g id="Icon">
<path fill-rule="evenodd" clip-rule="evenodd" d="M11.0814 1.12621C11.7146 0.493087 12.7411 0.493087 13.3742 1.12621L19.303 7.05507L13.3472 12.7402C12.6995 13.3584 11.6733 13.3345 11.0551 12.6869C10.4369 12.0392 10.4607 11.013 11.1084 10.3948L12.937 8.6493H8.9854C5.82178 8.6493 3.25715 11.2139 3.25715 14.3775C3.25715 17.5412 5.82178 20.1058 8.9854 20.1058H16.9833C17.8787 20.1058 18.6045 20.8316 18.6045 21.727C18.6045 22.6224 17.8787 23.3482 16.9833 23.3482H8.9854C4.03105 23.3482 0.0147476 19.3319 0.0147476 14.3775C0.0147476 9.42319 4.03104 5.40689 8.9854 5.40689H13.0694L11.0814 3.41893C10.4483 2.78581 10.4483 1.75933 11.0814 1.12621Z" fill="black"/>
</g>
</g>
</svg>
